<svg width="52" height="26" viewBox="0 0 52 26" fill="none" xmlns="http://www.w3.org/2000/svg">
<path fill-rule="evenodd" clip-rule="evenodd" d="M42 20.5C42 22.433 40.4331 24 38.5 24C36.5669 24 35 22.433 35 20.5C35 18.567 36.5669 17 38.5 17C40.4331 17 42 18.567 42 20.5ZM43.793 22H50.5C51.3284 22 52 21.3284 52 20.5C52 19.6716 51.3284 19 50.5 19H43.793C43.1401 16.6915 41.0176 15 38.5 15C35.9824 15 33.8599 16.6915 33.207 19H1.5C0.671631 19 0 19.6716 0 20.5C0 21.3284 0.671631 22 1.5 22H33.207C33.8599 24.3085 35.9824 26 38.5 26C41.0176 26 43.1401 24.3085 43.793 22Z" fill="white" fill-opacity="0.8"/>
<g clip-path="url(#clip0_201_5)">
<path fill-rule="evenodd" clip-rule="evenodd" d="M10 5.5C10 3.56702 11.5669 2 13.5 2C15.4331 2 17 3.56702 17 5.5C17 7.43298 15.4331 9 13.5 9C11.5669 9 10 7.43298 10 5.5ZM8.207 4L1.5 4C0.671601 4 5.53249e-07 4.67157 4.80825e-07 5.5C4.08402e-07 6.32843 0.671601 7 1.5 7L8.207 7C8.8599 9.30847 10.9824 11 13.5 11C16.0176 11 18.1401 9.30847 18.793 7L50.5 7C51.3284 7 52 6.32843 52 5.5C52 4.67157 51.3284 4 50.5 4L18.793 4C18.1401 1.69153 16.0176 -3.14568e-06 13.5 -3.36578e-06C10.9824 -3.58587e-06 8.8599 1.69153 8.207 4Z" fill="white" fill-opacity="0.8"/>
</g>
<defs>
<clipPath id="clip0_201_5">
<rect width="52" height="11" fill="white" transform="translate(52 11) rotate(-180)"/>
</clipPath>
</defs>
</svg>
