<svg width="35" height="34" viewBox="0 0 35 34" fill="none" xmlns="http://www.w3.org/2000/svg">
<rect y="31" width="35" height="3" rx="1.5" fill="#D9D9D9"/>
<path fill-rule="evenodd" clip-rule="evenodd" d="M17 21.1659V0.985718C17 0.441284 17.6716 0 18.5 0C19.3284 0 20 0.441284 20 0.985718V21.0127L27.5627 13.4198C28.1203 12.86 29.0242 12.86 29.5819 13.4198C30.1394 13.9796 30.1394 14.8872 29.5819 15.447L19.6415 25.4271C19.5131 25.5559 19.3665 25.6552 19.2099 25.7247C18.6513 26.1349 17.8631 26.0867 17.3585 25.5802L7.41817 15.6001C6.86061 15.0404 6.86061 14.1327 7.41817 13.573C7.97578 13.0132 8.87978 13.0132 9.43733 13.573L17 21.1659Z" fill="#D9D9D9"/>
</svg>
